<svg xmlns="http://www.w3.org/2000/svg" viewBox="0 0 96 96" width="96" height="96" role="img" aria-label="Image Workflow logo">
  <title>Image Workflow</title>
  <rect x="6" y="6" width="84" height="84" rx="20" fill="#F7F6F2" stroke="#E4E2DA" stroke-width="1"/>
  <line x1="27" y1="56" x2="37" y2="48" stroke="#CBC9C0" stroke-width="3" stroke-linecap="round"/>
  <line x1="47" y1="46" x2="60" y2="55" stroke="#CBC9C0" stroke-width="3" stroke-linecap="round"/>
  <circle cx="22" cy="60" r="7" fill="#16A34A"/>
  <circle cx="42" cy="44" r="7" fill="#4F46E5"/>
  <rect x="60" y="48" width="24" height="22" rx="4" fill="#F59E0B"/>
  <circle cx="78" cy="55" r="2.6" fill="#FFFFFF"/>
  <path d="M62 68 L69 58 L73 62 L79 54 L82 68 Z" fill="#FFFFFF"/>
  <path d="M53 26 C54 31 55 32 60 33 C55 34 54 35 53 40 C52 35 51 34 46 33 C51 32 52 31 53 26 Z" fill="#4F46E5"/>
</svg>
